<svg width="173" height="47" viewBox="0 0 173 47" fill="none" xmlns="http://www.w3.org/2000/svg">
<g clip-path="url(#clip0_542_164)">
<path d="M90.2324 29.6592V14.4161H93.2948V16.2696C94.0604 15.5485 94.8203 15.019 95.5803 14.681C96.3403 14.3485 97.1569 14.1797 98.0303 14.1797C99.6918 14.1797 101.002 14.6584 101.961 15.6159C102.919 16.568 103.401 17.886 103.401 19.5534V29.6592H100.339V20.3309C100.339 19.0971 100.078 18.1846 99.5503 17.5988C99.0228 17.0074 98.2063 16.7144 97.1004 16.7144C96.3121 16.7144 95.6259 16.8663 95.0305 17.1707C94.4407 17.4692 93.8623 17.9705 93.2951 18.6635V29.6592H90.2326H90.2324Z" fill="#6CA745"/>
<path d="M78.097 27.71C77.0762 28.3579 76.0326 28.8479 74.9492 29.1747C73.8717 29.4959 72.7544 29.6591 71.6032 29.6591C69.1815 29.6591 67.2476 28.9156 65.8016 27.4228C64.3553 25.9299 63.6351 23.9416 63.6351 21.4517C63.6351 19.1758 64.3328 17.3228 65.7223 15.9031C67.1118 14.4835 68.9209 13.7739 71.1611 13.7739C73.3728 13.7739 75.1308 14.4948 76.4238 15.9371C77.7227 17.3791 78.3692 19.3224 78.3692 21.7786V22.2236H66.8679C66.9588 23.6656 67.4352 24.7922 68.297 25.6034C69.159 26.4146 70.316 26.8201 71.7678 26.8201C72.7433 26.8201 73.7583 26.6397 74.8188 26.2848C75.8738 25.9244 76.9683 25.3836 78.097 24.6569V27.71ZM66.8679 20.0604H75.0004C74.8983 18.9451 74.4957 18.055 73.7869 17.3847C73.0781 16.7143 72.1874 16.3763 71.1271 16.3763C69.9534 16.3763 69.0004 16.6862 68.2802 17.3115C67.56 17.931 67.0893 18.8491 66.8682 20.0604H66.8679Z" fill="#6CA745"/>
<path d="M48.2943 29.6592V6.5752H51.3569V29.6592H48.2943Z" fill="#6CA745"/>
<path d="M61.8373 14.4163L55.4117 21.3786L63.1304 29.6593H58.9449L51.4589 21.5421L58.0659 14.4163H61.8373Z" fill="#6CA745"/>
<path d="M17.363 7.96167C19.9281 7.96167 22.2505 8.99453 23.9318 10.6645C25.6128 12.3342 26.6529 14.6412 26.6529 17.189C26.6529 19.7369 25.613 22.0437 23.9318 23.7136C22.2507 25.3833 19.9281 26.4164 17.363 26.4164C14.798 26.4164 12.4754 25.3836 10.7941 23.7136C9.11309 22.0437 8.073 19.7369 8.073 17.189C8.073 14.6412 9.11286 12.3344 10.7941 10.6645C12.4752 8.99476 14.7978 7.96167 17.363 7.96167ZM21.9857 12.5972C20.8031 11.4225 19.1684 10.6954 17.363 10.6954C15.5578 10.6954 13.923 11.4223 12.7402 12.5972C11.5576 13.7718 10.8255 15.3956 10.8255 17.1888C10.8255 18.9821 11.5573 20.6056 12.7402 21.7807C13.9228 22.9553 15.5575 23.6824 17.363 23.6824C19.1681 23.6824 20.8029 22.9555 21.9857 21.7807C23.1686 20.6056 23.9004 18.9823 23.9004 17.1888C23.9004 15.3956 23.1686 13.772 21.9857 12.5972Z" fill="#6CA745"/>
<path d="M4.937e-05 16.9483C0.0630502 12.5158 1.80917 8.4693 4.64909 5.43769C7.49204 2.40284 11.4288 0.380539 15.8695 0L16.106 2.72312C12.3638 3.04385 9.04939 4.7445 6.65931 7.29605C4.26574 9.85106 2.79417 13.2558 2.7414 16.9804L-0.000183105 16.9485L4.937e-05 16.9483Z" fill="#274054"/>
<path d="M34.7275 17.1113L34.7277 17.1889H34.7331C34.7331 21.9528 32.7889 26.2664 29.6456 29.3886C26.5023 32.5107 22.1594 34.442 17.3632 34.442C14.6028 34.442 11.9207 33.7871 9.51762 32.5779C7.11615 31.3698 4.99714 29.6077 3.36121 27.3933L5.576 25.7808C6.95319 27.645 8.73557 29.1274 10.7542 30.1432C12.7716 31.1582 15.0308 31.7083 17.3634 31.7083C21.4001 31.7083 25.0549 30.0829 27.7 27.4558C30.3451 24.8286 31.9813 21.1987 31.9813 17.1891H31.9866L31.9864 17.1116H34.728L34.7275 17.1113Z" fill="#274054"/>
<path fill-rule="evenodd" clip-rule="evenodd" d="M17.363 15.6169C18.2371 15.6169 18.9457 16.3208 18.9457 17.189C18.9457 18.0572 18.2371 18.761 17.363 18.761C16.4889 18.761 15.7803 18.0572 15.7803 17.189C15.7803 16.3208 16.4889 15.6169 17.363 15.6169Z" fill="#6CA745"/>
<path d="M17.363 14.25C18.1736 14.25 18.9115 14.579 19.4497 15.1108L19.455 15.1161C19.9904 15.6505 20.3217 16.3836 20.3217 17.1888C20.3217 18.0002 19.9904 18.735 19.455 19.267L19.4522 19.2642C18.914 19.7978 18.175 20.1278 17.363 20.1278C16.55 20.1278 15.8116 19.7985 15.2763 19.267L15.2709 19.2617C14.7357 18.7299 14.4042 17.9965 14.4042 17.189C14.4042 16.3824 14.7367 15.6484 15.2737 15.1138L15.2709 15.1111C15.8063 14.5793 16.5463 14.2502 17.3632 14.2502L17.363 14.25ZM17.5089 17.0385C17.475 17.0047 17.4236 16.984 17.363 16.984C17.3058 16.984 17.2542 17.0068 17.2167 17.044H17.2114C17.1774 17.0777 17.1565 17.1287 17.1565 17.189C17.1565 17.2479 17.1786 17.3001 17.2142 17.3368C17.2514 17.3721 17.3037 17.3941 17.363 17.3941C17.4236 17.3941 17.4752 17.373 17.5089 17.3396V17.3343C17.5461 17.2973 17.5694 17.2458 17.5694 17.189C17.5694 17.1287 17.5482 17.0775 17.5145 17.044L17.5092 17.0387L17.5089 17.0385Z" fill="#6CA745"/>
<path d="M117.053 28.8816C116.577 29.1462 116.066 29.3434 115.516 29.4674C114.972 29.597 114.382 29.6591 113.752 29.6591C112.028 29.6591 110.815 29.2536 110.111 28.4367C109.408 27.6199 109.057 26.1384 109.057 23.981V16.7483H106.437V16.4497L111.807 10.5633H112.153V14.1122H116.951V16.7485H112.153V23.7504C112.153 25.0123 112.312 25.829 112.624 26.2008C112.942 26.5668 113.531 26.7529 114.393 26.7529C114.859 26.7529 115.312 26.691 115.754 26.5725C116.197 26.4485 116.628 26.2626 117.053 26.0091V28.8821L117.053 28.8816ZM121.743 21.7165C121.743 23.1359 122.225 24.347 123.189 25.3496C124.153 26.3522 125.316 26.8538 126.677 26.8538C128.027 26.8538 129.189 26.3525 130.159 25.3441C131.129 24.3357 131.611 23.1246 131.611 21.7165C131.611 20.3195 131.129 19.1197 130.165 18.1169C129.201 17.1142 128.038 16.6127 126.677 16.6127C125.316 16.6127 124.154 17.114 123.189 18.1169C122.225 19.1195 121.744 20.3195 121.744 21.7165H121.743ZM118.545 21.7165C118.545 19.5025 119.339 17.6269 120.921 16.0835C122.503 14.5456 124.437 13.7739 126.717 13.7739C127.794 13.7739 128.821 13.9766 129.802 14.3766C130.783 14.7765 131.656 15.351 132.433 16.1003C133.222 16.8947 133.817 17.7619 134.231 18.7082C134.639 19.6603 134.843 20.6573 134.843 21.7163C134.843 22.7639 134.634 23.7781 134.214 24.7694C133.789 25.7607 133.199 26.6282 132.433 27.3662C131.656 28.121 130.788 28.6955 129.819 29.0786C128.849 29.4672 127.817 29.6589 126.717 29.6589C124.437 29.6589 122.503 28.8872 120.921 27.3493C119.339 25.8057 118.544 23.93 118.544 21.7163L118.545 21.7165ZM139.954 21.7165C139.954 23.1359 140.436 24.347 141.4 25.3496C142.364 26.3522 143.526 26.8538 144.888 26.8538C146.237 26.8538 147.4 26.3525 148.37 25.3441C149.34 24.3357 149.822 23.1246 149.822 21.7165C149.822 20.3195 149.34 19.1197 148.376 18.1169C147.412 17.1142 146.249 16.6127 144.888 16.6127C143.527 16.6127 142.364 17.114 141.4 18.1169C140.436 19.1195 139.954 20.3195 139.954 21.7165H139.954ZM136.755 21.7165C136.755 19.5025 137.549 17.6269 139.132 16.0835C140.714 14.5456 142.648 13.7739 144.927 13.7739C146.005 13.7739 147.031 13.9766 148.013 14.3766C148.994 14.7765 149.867 15.351 150.644 16.1003C151.432 16.8947 152.028 17.7619 152.442 18.7082C152.85 19.6603 153.054 20.6573 153.054 21.7163C153.054 22.7639 152.844 23.7781 152.424 24.7694C151.999 25.7607 151.409 26.6282 150.644 27.3662C149.867 28.121 148.999 28.6955 148.029 29.0786C147.059 29.4672 146.027 29.6589 144.927 29.6589C142.647 29.6589 140.713 28.8872 139.131 27.3493C137.549 25.8057 136.755 23.93 136.755 21.7163L136.755 21.7165ZM156.055 29.3548V6.27051H159.117V29.3548H156.055ZM162.145 28.3127V25.0624C163.064 25.6651 163.949 26.1269 164.8 26.4425C165.656 26.7635 166.433 26.9212 167.142 26.9212C167.93 26.9212 168.542 26.7748 168.991 26.4818C169.439 26.1945 169.666 25.7946 169.666 25.2877C169.666 24.6511 168.832 23.9189 167.159 23.0964C166.671 22.8542 166.297 22.6625 166.03 22.5217C164.595 21.7952 163.614 21.091 163.081 20.4151C162.548 19.739 162.282 18.911 162.282 17.931C162.282 16.6577 162.741 15.6438 163.66 14.8947C164.579 14.1457 165.843 13.7737 167.448 13.7737C168.316 13.7737 169.144 13.875 169.943 14.0778C170.737 14.2808 171.52 14.5959 172.286 15.0243V17.9984C171.344 17.4802 170.482 17.0969 169.705 16.8492C168.923 16.6014 168.185 16.4774 167.488 16.4774C166.847 16.4774 166.353 16.5901 166.002 16.8099C165.656 17.0295 165.48 17.3452 165.48 17.7675C165.48 18.5336 166.546 19.446 168.684 20.4881L168.968 20.6231C170.641 21.457 171.73 22.1947 172.234 22.8258C172.745 23.4624 173 24.262 173 25.2312C173 26.5774 172.495 27.6479 171.48 28.4533C170.471 29.2587 169.126 29.6586 167.454 29.6586C166.495 29.6586 165.576 29.5459 164.709 29.3261C163.841 29.1065 162.985 28.7685 162.145 28.3122L162.145 28.3127Z" fill="#274054"/>
<path d="M53.3778 39.8187L53.4401 38.1472L48.292 43.0378L48.2297 44.7094L53.3778 39.8187ZM49.5511 38.5804H48.2299V44.7091L49.5511 43.1861V38.5801V38.5804ZM53.4404 38.1472L52.119 39.6575V44.2757H53.4404V38.1469V38.1472ZM55.7965 41.8244H60.184V40.71H55.7965V41.8244ZM59.4613 38.5804V44.276H60.7824V38.5804H59.4613ZM55.2104 38.5804V44.276H56.5318V38.5804H55.2104ZM63.4003 41.4282C63.4003 41.0732 63.4794 40.7597 63.6374 40.4872C63.7953 40.2147 64.0092 40.0002 64.2793 39.8432C64.5495 39.6864 64.8507 39.6081 65.183 39.6081C65.4489 39.6081 65.7065 39.6495 65.9557 39.7319C66.2051 39.8143 66.4274 39.9277 66.6227 40.0723C66.8179 40.2168 66.9612 40.384 67.0527 40.5738V39.0881C66.8533 38.8981 66.5834 38.7454 66.2426 38.6298C65.9018 38.5141 65.5277 38.4564 65.1206 38.4564C64.5388 38.4564 64.0131 38.5824 63.5438 38.8341C63.0742 39.086 62.7022 39.4347 62.4279 39.8804C62.1536 40.326 62.0164 40.8421 62.0164 41.4279C62.0164 42.0057 62.1536 42.5197 62.4279 42.9695C62.7022 43.4193 63.0739 43.77 63.5438 44.0217C64.0131 44.2734 64.5388 44.3995 65.1206 44.3995C65.5277 44.3995 65.9018 44.3418 66.2426 44.2261C66.5834 44.1106 66.8533 43.9536 67.0527 43.7555V42.2821C66.9614 42.4638 66.82 42.6268 66.6289 42.7711C66.4379 42.9157 66.2198 43.0311 65.9743 43.1177C65.7293 43.2043 65.4654 43.2477 65.183 43.2477C64.8505 43.2477 64.5492 43.1692 64.2793 43.0124C64.0092 42.8556 63.7953 42.6411 63.6374 42.3686C63.4794 42.0964 63.4003 41.7826 63.4003 41.4277V41.4282ZM67.7386 38.5804V39.7566H71.3659V38.5804H67.7386ZM68.8977 38.8281V44.2757H70.2188V38.8281H68.8977ZM73.5969 46.9998V38.5804H72.2381V46.9998H73.5969ZM78.3462 41.4282C78.3462 40.7844 78.2174 40.2417 77.9598 39.8C77.7022 39.3585 77.3614 39.0179 76.9376 38.7785C76.5136 38.5392 76.0523 38.4194 75.5539 38.4194C75.072 38.4194 74.6503 38.5432 74.2885 38.7909C73.9273 39.0387 73.6467 39.3853 73.447 39.831C73.2478 40.2768 73.1478 40.8091 73.1478 41.4282C73.1478 42.0391 73.2478 42.5695 73.447 43.0191C73.6465 43.4689 73.927 43.8158 74.2885 44.0591C74.65 44.3025 75.0718 44.4244 75.5539 44.4244C76.0523 44.4244 76.5136 44.3069 76.9376 44.0716C77.3614 43.8363 77.7022 43.4936 77.9598 43.0438C78.2171 42.594 78.3462 42.0553 78.3462 41.4279V41.4282ZM76.9499 41.4282C76.9499 41.808 76.8711 42.1297 76.7133 42.394C76.5554 42.6582 76.3476 42.8605 76.09 43.0009C75.8324 43.141 75.5458 43.2112 75.2298 43.2112C74.9639 43.2112 74.7063 43.1431 74.4571 43.0069C74.2076 42.8706 74.0021 42.6707 73.8401 42.4063C73.6781 42.1421 73.5969 41.8163 73.5969 41.4282C73.5969 41.0405 73.6781 40.7144 73.8401 40.45C74.0021 40.1859 74.2079 39.9857 74.4571 39.8494C74.7063 39.7134 74.9641 39.6453 75.2298 39.6453C75.5455 39.6453 75.8322 39.7134 76.09 39.8494C76.3478 39.9857 76.5554 40.1879 76.7133 40.4563C76.8711 40.7246 76.9499 41.0485 76.9499 41.4282ZM84.5165 38.5804H83.0705L81.2756 43.0501L81.9112 43.0872L80.0788 38.5804H78.5331L80.8518 43.6072L79.3433 46.9998H80.7769L84.5165 38.5804ZM90.7992 44.276H92.2326L90.6495 38.1472L89.9265 40.0044L90.7992 44.276ZM87.9946 43.1119L88.3684 44.6595L90.7743 40.3385L90.6497 38.1472L87.9946 43.1119ZM88.3684 44.6595L88.7425 43.1119L86.1371 38.1472L86.0125 40.3385L88.3684 44.6595ZM84.5416 44.2757H85.9751L86.8476 40.0041L86.1371 38.1469L84.5416 44.2757ZM93.5291 41.7376H98.565C98.5734 41.6632 98.5776 41.5951 98.5776 41.5332C98.5776 41.4713 98.5776 41.4157 98.5776 41.366C98.5776 40.7634 98.4632 40.2454 98.2347 39.812C98.0062 39.3786 97.6779 39.0445 97.2499 38.8094C96.8219 38.5741 96.3086 38.4564 95.7105 38.4564C95.1702 38.4564 94.6925 38.5556 94.2768 38.7535C93.8614 38.9517 93.5268 39.2283 93.2734 39.5832C93.02 39.9381 92.8517 40.3507 92.7687 40.8211C92.752 40.9204 92.7394 41.0192 92.7313 41.1183C92.7229 41.2173 92.7187 41.3206 92.7187 41.4277C92.7187 41.9973 92.8394 42.507 93.0802 42.9568C93.3213 43.4066 93.6642 43.7596 94.1087 44.0153C94.5534 44.2711 95.0665 44.399 95.6482 44.399C96.1715 44.399 96.6099 44.3351 96.9633 44.2069C97.3164 44.079 97.6177 43.8996 97.8669 43.6684C98.1164 43.4373 98.3365 43.1648 98.5276 42.8515L97.3557 42.3934C97.2478 42.5751 97.1149 42.7337 96.9568 42.87C96.7989 43.0062 96.6183 43.1115 96.4146 43.1856C96.211 43.26 95.9764 43.2971 95.7105 43.2971C95.3948 43.2971 95.1142 43.229 94.8689 43.0928C94.6239 42.9568 94.4325 42.7483 94.2954 42.4675C94.1582 42.1869 94.0899 41.8401 94.0899 41.4275L94.1148 41.0809C94.1148 40.7507 94.1833 40.4639 94.3205 40.2205C94.4577 39.9771 94.6467 39.7912 94.8877 39.6633C95.1286 39.5354 95.3987 39.4714 95.6979 39.4714C95.989 39.4714 96.234 39.5271 96.4335 39.6386C96.6329 39.7501 96.7889 39.9069 96.901 40.1092C97.0133 40.3115 97.0858 40.5445 97.1193 40.8089H93.5291V41.7376ZM100.46 41.8242H104.848V40.7098H100.46V41.8242ZM104.125 38.5801V44.2757H105.446V38.5801H104.125ZM99.8741 38.5801V44.2757H101.195V38.5801H99.8741ZM106.369 38.5801V39.7564H109.996V38.5801H106.369ZM107.528 38.8279V44.2755H108.849V38.8279H107.528ZM119.856 39.8183L119.918 38.1467L114.77 43.0374L114.708 44.7089L119.856 39.8183ZM116.029 38.5799H114.708V44.7087L116.029 43.1856V38.5797V38.5799ZM119.918 38.1467L118.597 39.6571V44.2753H119.918V38.1465V38.1467ZM127.709 41.4277C128.44 41.4443 128.997 41.3185 129.379 41.0502C129.762 40.7818 129.953 40.4415 129.953 40.0286C129.953 39.7397 129.861 39.4756 129.679 39.2361C129.496 38.9967 129.242 38.8069 128.918 38.6665C128.594 38.5263 128.228 38.4561 127.821 38.4561C127.389 38.4561 127.005 38.5388 126.668 38.7039C126.332 38.8688 126.07 39.0918 125.883 39.3724C125.696 39.6529 125.603 39.9707 125.603 40.3256H126.886C126.886 40.1935 126.922 40.0676 126.992 39.9478C127.063 39.8284 127.169 39.7291 127.31 39.6506C127.452 39.5721 127.626 39.5331 127.834 39.5331C128.083 39.5331 128.283 39.5908 128.432 39.7063C128.582 39.822 128.657 39.9746 128.657 40.1646C128.657 40.3544 128.582 40.5131 128.432 40.6412C128.283 40.7691 128.042 40.8333 127.709 40.8333V41.4275L127.709 41.4277ZM127.796 44.3993C128.245 44.3993 128.652 44.327 129.018 44.1827C129.384 44.0381 129.673 43.8317 129.884 43.5636C130.096 43.2953 130.202 42.9755 130.202 42.6042C130.202 42.0759 129.98 41.6817 129.535 41.4219C129.091 41.1619 128.482 41.0402 127.709 41.0566V41.7129C127.967 41.7129 128.185 41.7459 128.364 41.8119C128.542 41.878 128.677 41.9708 128.769 42.0904C128.86 42.2102 128.906 42.3608 128.906 42.5423C128.906 42.6991 128.862 42.8395 128.775 42.9635C128.688 43.0872 128.561 43.1821 128.395 43.2482C128.228 43.3142 128.029 43.3475 127.796 43.3475C127.439 43.3475 127.171 43.2565 126.992 43.075C126.814 42.8933 126.695 42.6746 126.637 42.4188H125.316C125.382 43.0048 125.629 43.4816 126.057 43.8488C126.485 44.2162 127.065 44.4 127.796 44.4V44.3993ZM132.471 42.5915C132.471 42.3934 132.521 42.2223 132.621 42.0777C132.72 41.9332 132.866 41.8216 133.057 41.7433C133.248 41.6651 133.485 41.6258 133.768 41.6258C134.117 41.6258 134.424 41.669 134.69 41.7556C134.956 41.8424 135.218 41.9807 135.475 42.1705V41.4646C135.409 41.382 135.288 41.2873 135.114 41.1799C134.939 41.0726 134.721 40.9777 134.459 40.895C134.197 40.8123 133.901 40.7712 133.568 40.7712C133.07 40.7712 132.635 40.8453 132.265 40.9938C131.896 41.1425 131.611 41.357 131.411 41.6376C131.212 41.9181 131.112 42.2525 131.112 42.6407C131.112 43.0286 131.202 43.3526 131.38 43.6126C131.559 43.8726 131.8 44.0686 132.103 44.2007C132.406 44.3328 132.745 44.3988 133.119 44.3988C133.518 44.3988 133.88 44.3307 134.204 44.1945C134.528 44.0584 134.785 43.8603 134.977 43.6003C135.168 43.3403 135.263 43.0288 135.263 42.6654L135.064 42.0091C135.064 42.3474 134.997 42.616 134.864 42.8138C134.731 43.012 134.549 43.1563 134.316 43.2473C134.083 43.338 133.821 43.3835 133.531 43.3835C133.339 43.3835 133.163 43.3526 133.001 43.2904C132.839 43.2286 132.71 43.1399 132.614 43.0244C132.519 42.9087 132.471 42.7644 132.471 42.591V42.5915ZM132.184 40.0783C132.276 40.0205 132.406 39.948 132.577 39.8614C132.747 39.7748 132.947 39.6984 133.175 39.6324C133.404 39.5663 133.655 39.5333 133.929 39.5333C134.245 39.5333 134.513 39.6056 134.733 39.7501C134.953 39.8947 135.064 40.0986 135.064 40.363V44.2755H136.385V40.2145C136.385 39.8349 136.283 39.513 136.08 39.2488C135.876 38.9847 135.596 38.7845 135.238 38.6482C134.881 38.5122 134.465 38.4439 133.992 38.4439C133.476 38.4439 133.019 38.518 132.62 38.6665C132.221 38.8152 131.893 38.9678 131.636 39.1248L132.184 40.0783ZM143.041 38.5799H137.968V44.2755H139.289V39.7811H141.72V44.2755H143.041V38.5799ZM146.768 42.6658H148.726V41.4896H146.993L146.769 42.6658H146.768ZM148.015 38.5799V44.2755H149.374V38.5799H148.015ZM145.883 38.5799H144.524V40.2143C144.524 40.7673 144.591 41.2254 144.724 41.5884C144.857 41.9519 145.088 42.222 145.416 42.3996C145.744 42.5769 146.195 42.6656 146.768 42.6656L146.993 41.4893C146.719 41.4893 146.5 41.448 146.338 41.3656C146.176 41.2829 146.06 41.1531 145.989 40.9756C145.919 40.7982 145.883 40.565 145.883 40.2761V38.5797V38.5799ZM151.966 42.5915C151.966 42.3934 152.016 42.2223 152.116 42.0777C152.216 41.9332 152.361 41.8216 152.552 41.7433C152.743 41.6651 152.98 41.6258 153.263 41.6258C153.612 41.6258 153.919 41.669 154.185 41.7556C154.451 41.8424 154.713 41.9807 154.97 42.1705V41.4646C154.904 41.382 154.783 41.2873 154.609 41.1799C154.434 41.0726 154.216 40.9777 153.954 40.895C153.693 40.8123 153.396 40.7712 153.063 40.7712C152.565 40.7712 152.13 40.8453 151.761 40.9938C151.391 41.1425 151.106 41.357 150.907 41.6376C150.707 41.9181 150.607 42.2525 150.607 42.6407C150.607 43.0286 150.697 43.3526 150.875 43.6126C151.054 43.8726 151.295 44.0686 151.598 44.2007C151.902 44.3328 152.24 44.3988 152.614 44.3988C153.013 44.3988 153.375 44.3307 153.699 44.1945C154.023 44.0584 154.28 43.8603 154.472 43.6003C154.663 43.3403 154.758 43.0288 154.758 42.6654L154.559 42.0091C154.559 42.3474 154.492 42.616 154.359 42.8138C154.227 43.012 154.044 43.1563 153.811 43.2473C153.578 43.338 153.317 43.3835 153.025 43.3835C152.834 43.3835 152.658 43.3526 152.496 43.2904C152.334 43.2286 152.205 43.1399 152.109 43.0244C152.014 42.9087 151.966 42.7644 151.966 42.591L151.966 42.5915ZM151.679 40.0783C151.771 40.0205 151.902 39.948 152.072 39.8614C152.242 39.7748 152.442 39.6984 152.67 39.6324C152.899 39.5663 153.15 39.5333 153.425 39.5333C153.74 39.5333 154.009 39.6056 154.229 39.7501C154.449 39.8947 154.559 40.0986 154.559 40.363V44.2755H155.88V40.2145C155.88 39.8349 155.778 39.513 155.575 39.2488C155.371 38.9847 155.091 38.7845 154.734 38.6482C154.376 38.5122 153.961 38.4439 153.487 38.4439C152.972 38.4439 152.515 38.518 152.116 38.6665C151.717 38.8152 151.389 38.9678 151.131 39.1248L151.679 40.0783ZM158.361 41.4277C158.361 41.0728 158.44 40.7592 158.598 40.4867C158.755 40.2143 158.969 39.9997 159.24 39.8427C159.51 39.6859 159.811 39.6077 160.143 39.6077C160.409 39.6077 160.667 39.649 160.916 39.7314C161.166 39.8139 161.388 39.9272 161.583 40.0718C161.778 40.2163 161.922 40.3835 162.013 40.5733V39.0877C161.814 38.8976 161.544 38.745 161.203 38.6293C160.862 38.5136 160.488 38.4559 160.081 38.4559C159.499 38.4559 158.974 38.582 158.504 38.8337C158.035 39.0856 157.663 39.4343 157.389 39.8799C157.114 40.3256 156.977 40.8416 156.977 41.4275C156.977 42.0052 157.114 42.5192 157.389 42.969C157.663 43.4188 158.035 43.7696 158.504 44.0213C158.974 44.273 159.499 44.399 160.081 44.399C160.488 44.399 160.862 44.3413 161.203 44.2256C161.544 44.1102 161.814 43.9532 162.013 43.755V42.2816C161.922 42.4633 161.78 42.6263 161.589 42.7707C161.398 42.9152 161.18 43.0307 160.935 43.1173C160.69 43.2039 160.426 43.2473 160.143 43.2473C159.811 43.2473 159.509 43.1688 159.24 43.012C158.969 42.8552 158.755 42.6407 158.597 42.3682C158.44 42.0959 158.361 41.7821 158.361 41.4272L158.361 41.4277ZM162.699 38.5799V39.7561H166.326V38.5799H162.699ZM163.858 38.8277V44.2753H165.179V38.8277H163.858ZM172.446 39.818L172.509 38.1465L167.361 43.0371L167.298 44.7087L172.446 39.818ZM168.62 38.5797H167.299V44.7085L168.62 43.1854V38.5794V38.5797ZM172.509 38.1465L171.188 39.6569V44.275H172.509V38.1462V38.1465Z" fill="#274054"/>
<path d="M82.8185 13.7327V29.6592H85.9209V13.7327H82.8185Z" fill="#6CA745"/>
<path d="M82.3915 9.2897C82.3915 9.80601 82.5889 10.2505 82.9834 10.6234C83.3781 10.9963 83.8354 11.1827 84.355 11.1827C84.9134 11.1827 85.3848 10.9963 85.77 10.6234C86.155 10.2503 86.3477 9.80601 86.3477 9.2897C86.3477 8.75399 86.1553 8.30487 85.77 7.94142C85.3851 7.5782 84.9134 7.39624 84.355 7.39624C83.8352 7.39624 83.3781 7.57797 82.9834 7.94142C82.5889 8.30464 82.3915 8.75399 82.3915 9.2897Z" fill="#6CA745"/>
</g>
<defs>
<clipPath id="clip0_542_164">
<rect width="173" height="47" fill="white"/>
</clipPath>
</defs>
</svg>
