<svg width="226" height="20" viewBox="0 0 226 20" fill="none" xmlns="http://www.w3.org/2000/svg">
<rect y="9" width="100" height="1" fill="#BEF72E"/>
<rect x="126" y="9" width="100" height="1" fill="#BEF72E"/>
<path d="M112.033 0.0274392C110.267 0.19976 108.754 0.661136 107.349 1.45604C106.546 1.90629 105.255 2.97913 104.713 3.64618C103.944 4.59673 103.382 5.73627 103.128 6.85357C102.947 7.65959 102.96 9.19936 103.154 9.95535C103.649 11.8286 104.686 13.3073 106.426 14.608L106.948 14.9971L106.981 17.2429C107.015 19.4052 107.022 19.4997 107.155 19.6498C107.229 19.7332 107.396 19.8499 107.523 19.8999C107.731 19.9944 108.132 20 113.003 20C117.874 20 118.275 19.9944 118.483 19.8999C118.61 19.8499 118.777 19.7332 118.851 19.6498C118.985 19.4997 118.991 19.4163 119.011 17.2484L119.031 15.0082L119.446 14.7136C121.253 13.424 122.417 11.7619 122.885 9.79971C122.979 9.42171 123.006 9.04928 122.999 8.27105C122.992 7.35386 122.972 7.17042 122.812 6.57564C122.343 4.8969 121.527 3.66842 120.068 2.46217C118.382 1.06137 116.455 0.272024 114.174 0.0496742C113.612 -0.00591321 112.481 -0.0170307 112.033 0.0274392ZM114.876 1.92297C116.482 2.27873 117.646 2.84572 118.777 3.8185C119.961 4.84131 120.684 6.04756 120.938 7.43724C121.36 9.76636 120.182 12.1233 117.84 13.6464C116.977 14.2078 117.018 14.0744 117.018 16.3868V18.3324H116.516H116.014V17.3985C116.014 16.3757 115.96 16.1978 115.592 15.9755C115.325 15.8143 114.696 15.8143 114.428 15.9755C114.06 16.1978 114.007 16.3757 114.007 17.3985V18.3324H113.003H111.999V17.3985C111.999 16.3757 111.946 16.1978 111.578 15.9755C111.31 15.8143 110.681 15.8143 110.414 15.9755C110.046 16.1978 109.992 16.3757 109.992 17.3985V18.3324H109.49H108.989V16.359C108.989 14.0466 109.009 14.13 108.326 13.7631C107.737 13.4462 106.801 12.6903 106.393 12.2011C105.717 11.3839 105.309 10.5446 105.101 9.56068C104.66 7.40389 105.483 5.24154 107.329 3.72956C108.279 2.94022 109.196 2.46217 110.427 2.10641C111.384 1.82291 111.879 1.76733 113.204 1.78956C114.1 1.80624 114.495 1.83959 114.876 1.92297Z" fill="#8A53FF"/>
<path d="M107.51 7.61521C107.215 7.75418 106.981 8.07658 106.981 8.32673C106.981 8.57131 107.229 8.90484 107.677 9.2606C107.884 9.4218 108.051 9.56633 108.051 9.57744C108.051 9.58856 107.904 9.71641 107.717 9.86094C107.255 10.2223 106.981 10.578 106.981 10.8226C106.981 11.1784 107.362 11.573 107.764 11.6397C108.192 11.7064 108.413 11.6231 108.961 11.1895C109.249 10.9616 109.49 10.7726 109.49 10.7726C109.49 10.7726 109.724 10.9616 110.012 11.1895C110.561 11.6231 110.788 11.7064 111.216 11.6397C111.618 11.573 111.999 11.1784 111.999 10.8226C111.999 10.578 111.725 10.2223 111.263 9.86094C111.076 9.71641 110.928 9.59412 110.928 9.583C110.928 9.57189 111.109 9.41624 111.323 9.2328C111.812 8.82701 111.999 8.57687 111.999 8.33229C111.999 7.91538 111.484 7.49292 110.982 7.49292C110.694 7.49292 110.259 7.72082 109.838 8.09326C109.664 8.25446 109.503 8.38231 109.49 8.38231C109.477 8.38231 109.316 8.25446 109.142 8.09326C108.493 7.51515 108.005 7.37062 107.51 7.61521Z" fill="#8A53FF"/>
<path d="M114.535 7.61508C114.241 7.75405 114.007 8.07645 114.007 8.3266C114.007 8.57118 114.254 8.89915 114.709 9.26602L115.084 9.5662L114.656 9.93307C114.167 10.35 114.007 10.5779 114.007 10.8391C114.007 11.1782 114.395 11.5729 114.79 11.6396C115.225 11.7119 115.452 11.6229 115.994 11.1838L116.502 10.7669L116.697 10.9225C117.426 11.5062 117.58 11.6063 117.794 11.6396C118.148 11.6952 118.443 11.6229 118.67 11.4228C119.226 10.9392 119.159 10.6057 118.369 9.92751L117.934 9.54952L118.342 9.23267C118.831 8.84356 119.025 8.58786 119.025 8.32104C119.025 7.94304 118.496 7.49279 118.041 7.49279C117.72 7.49279 117.453 7.6262 116.944 8.03198L116.496 8.38774L116.141 8.07645C115.485 7.50946 115.031 7.37605 114.535 7.61508Z" fill="#8A53FF"/>
</svg>
