<svg data-v-f905beb8="" width="245" height="34" viewBox="0 0 245 34" fill="none" xmlns="http://www.w3.org/2000/svg">
	<path d="M24.7592 6.99842C24.7592 8.99842 21.6164 11.2841 19.0449 12.427C18.4735 12.7127 18.1878 12.9984 17.6164 12.7127C17.0449 12.7127 16.1878 12.427 15.9021 12.1413C15.6164 11.8556 15.6163 11.5699 15.3306 11.5699L15.0449 10.9984C10.7592 12.427 10.7592 10.9984 10.7592 10.9984L14.1878 8.71271C15.3306 8.14128 16.1878 7.85557 17.3306 7.56985L28.4735 4.99842C27.0449 5.85557 25.9021 6.42699 24.7592 6.99842ZM45.9021 14.427C48.1878 12.9984 50.1878 11.2841 51.0449 7.85557C52.1878 3.28414 47.9021 -1.00158 43.6164 0.426996C41.9021 0.998424 40.4735 1.56985 38.4735 2.427C25.6164 -2.14443 14.4735 0.14128 5.33064 10.427L4.75921 13.8556L1.04492 16.7127L7.90206 15.5699C8.47349 15.2841 8.75921 16.1413 8.47349 16.7127L4.75921 20.427C4.47349 20.7127 4.47349 20.7127 4.18778 20.7127H3.90206V20.9984C3.61635 20.9984 3.33064 20.7127 3.04492 20.7127L1.90206 19.5699L3.90206 26.1413C4.18778 26.1413 4.18778 26.427 4.47349 26.7127C4.75921 26.7127 5.04492 26.9984 5.33064 26.7127H6.47349L6.75921 28.1413C7.04492 29.5699 8.47349 30.1413 9.90206 29.8556L17.9021 28.1413C27.9021 39.8556 29.9021 30.427 35.9021 27.2841C41.3306 23.8556 51.6164 26.9984 45.9021 14.427Z"
	      fill="#B287FD"></path>
	<path d="M4.47293 20.427L5.33008 22.427L9.9015 24.7127C10.4729 24.9984 11.0444 24.9984 11.6158 24.9984C12.1872 24.9984 12.7586 24.7127 13.3301 24.1413L19.0444 19.5698L19.6158 20.427L13.9015 24.9984C13.3301 25.5698 12.4729 25.8555 11.9015 26.1413C11.0444 26.1413 10.1872 26.1413 9.33008 25.5698L4.47293 23.2841L3.33008 20.7127L4.47293 20.427Z"
	      fill="#434242"></path>
	<path d="M28.1869 4.99854C27.0441 5.56996 25.6155 6.42711 24.4727 6.99853C22.4727 7.85568 20.4727 8.71282 19.0441 9.56996C17.6155 10.1414 16.1869 10.4271 15.3298 10.7128L15.0441 10.9985C10.7584 12.1414 10.4727 10.9985 10.4727 10.9985L14.1869 8.71282C15.0441 8.14139 16.1869 7.56996 17.3298 7.56996L28.1869 4.99854Z"
	      fill="#434242"></path>
	<path d="M5.33147 22.7129L4.76004 26.4272H3.61719L4.18862 22.7129H5.33147Z" fill="#434242"></path>
	<path d="M8.18767 16.427L4.47339 20.427L4.18767 20.7127H3.90196H3.61624C3.33053 20.7127 3.33053 20.7127 3.04482 20.427L1.90196 19.2842L0.187673 17.8556C-0.0980415 17.5699 -0.0980418 16.9985 0.473387 16.7127H1.04482L7.61624 15.2842C8.47339 15.2842 8.7591 16.1413 8.18767 16.427Z"
	      fill="#434242"></path>
	<path d="M5.32997 10.4268L0.472829 12.9982C0.187114 13.2839 0.187115 13.8553 0.758543 13.8553L4.47283 13.5696L5.32997 10.4268Z"
	      fill="#434242"></path>
	<path d="M19.3306 10.7127C19.3306 11.8555 18.4735 12.7127 17.6164 12.7127C16.7592 12.7127 16.1878 12.427 15.9021 11.8555C15.6164 11.8555 15.3306 11.5698 15.3306 11.2841L15.0449 10.9984L15.3306 10.7127C16.1878 10.427 17.6164 10.1413 19.0449 9.56982C19.3306 9.85554 19.3306 10.1413 19.3306 10.7127Z"
	      fill="#434242"></path>
	<path d="M64.4732 15.5697H76.7589V19.284H64.4732V15.5697ZM77.0446 8.42683V12.1411H64.4732L66.4732 10.1411V25.5697H62.1875L62.4732 8.42683H77.0446ZM81.3304 22.1411V18.7125H93.0446V22.1411H81.3304ZM89.9018 8.42683L97.9018 25.5697H93.3304L86.4732 10.4268H87.9018L81.0446 25.5697H76.4732L84.4732 8.42683H89.9018ZM97.9018 19.8554H102.187C102.187 20.4268 102.473 20.9983 103.045 21.284C103.33 21.8554 103.902 22.1411 104.473 22.1411C105.045 22.4268 105.902 22.4268 106.759 22.4268C108.187 22.4268 109.045 22.4268 109.902 22.1411C110.473 21.5697 110.759 21.284 110.759 20.7125C110.759 20.1411 110.759 19.8554 110.187 19.5697C109.902 19.284 109.045 18.9983 107.902 18.9983L104.759 18.4268C102.473 18.4268 100.759 17.8554 99.6161 16.9983C98.7589 16.1411 98.1875 14.9983 98.1875 13.5697C98.1875 12.4268 98.4732 11.5697 99.0446 10.7125C99.9018 9.8554 100.759 9.28397 101.902 8.71254C103.33 8.42683 104.759 8.14111 106.188 8.14111C107.902 8.14111 109.33 8.42683 110.473 8.99826C111.902 9.28397 112.759 10.1411 113.616 10.7125C114.187 11.5697 114.759 12.7125 114.759 13.8554H110.473C110.188 13.284 110.187 12.9983 109.616 12.4268C109.33 12.1411 109.045 11.8554 108.188 11.8554C107.616 11.5697 107.045 11.5697 106.188 11.5697C105.045 11.5697 104.187 11.5697 103.33 11.8554C102.759 12.4268 102.473 12.7125 102.473 13.284C102.473 13.8554 102.759 14.1411 103.045 14.4268C103.33 14.7125 104.188 14.9983 105.33 14.9983L108.759 15.284C110.188 15.5697 111.616 15.8554 112.473 16.1411C113.33 16.4268 114.187 16.9983 114.473 17.5697C115.045 18.4268 115.045 18.9983 115.045 20.1411C115.045 21.284 114.759 22.1411 114.187 23.284C113.33 24.1411 112.473 24.7125 111.045 25.284C109.902 25.5697 108.473 25.8554 106.759 25.8554C105.045 25.8554 103.616 25.5697 102.187 25.284C100.759 24.7125 99.9018 23.8554 99.0446 22.9983C98.4732 22.1411 97.9018 21.284 97.9018 19.8554ZM122.473 10.4268H126.759V25.5697H122.473V10.4268ZM115.616 8.42683H133.33V12.4268H115.616V8.42683ZM134.188 25.8554C133.616 25.8554 133.33 25.5697 132.759 25.5697C132.473 25.284 132.188 24.9983 131.902 24.7125C131.616 24.1411 131.616 23.8554 131.616 23.284C131.616 22.9983 131.616 22.4268 131.902 22.1411C132.188 21.8554 132.473 21.5697 132.759 21.284C133.33 20.9983 133.616 20.9983 134.188 20.9983C134.473 20.9983 135.045 20.9983 135.33 21.284C135.616 21.5697 135.902 21.8554 136.188 22.1411C136.473 22.4268 136.473 22.9983 136.473 23.284C136.473 23.8554 136.473 24.1411 136.188 24.7125C135.902 24.9983 135.616 25.284 135.33 25.5697C135.045 25.5697 134.473 25.8554 134.188 25.8554Z"
	      fill="black"></path>
	<path d="M148.187 25.8554C146.187 25.8554 144.473 25.5697 143.045 24.7125C141.33 24.1411 140.187 22.9983 139.33 21.5697C138.473 20.4268 138.188 18.7125 138.188 16.9983C138.188 15.284 138.473 13.8554 139.33 12.4268C140.187 10.9983 141.33 10.1411 143.045 9.28397C144.473 8.42683 146.187 8.14111 148.187 8.14111C150.187 8.14111 151.902 8.42683 153.33 9.28397C155.045 10.1411 156.187 10.9983 157.045 12.4268C157.902 13.8554 158.188 15.284 158.188 16.9983C158.188 18.7125 157.902 20.4268 157.045 21.5697C156.187 22.9983 155.045 24.1411 153.33 24.7125C151.902 25.5697 150.187 25.8554 148.187 25.8554ZM148.187 22.1411C149.33 22.1411 150.473 21.8554 151.33 21.5697C152.188 20.9983 152.759 20.4268 153.33 19.8554C153.616 18.9983 153.902 18.1411 153.902 16.9983C153.902 15.8554 153.616 14.9983 153.33 14.4268C152.759 13.5697 152.188 12.9983 151.33 12.7125C150.473 12.1411 149.33 12.1411 148.187 12.1411C147.045 12.1411 145.902 12.1411 145.045 12.7125C144.473 12.9983 143.616 13.5697 143.33 14.4268C142.759 14.9983 142.473 15.8554 142.473 16.9983C142.473 18.1411 142.759 18.9983 143.33 19.8554C143.616 20.4268 144.473 20.9983 145.045 21.5697C145.902 21.8554 147.045 22.1411 148.187 22.1411ZM176.473 22.7125L175.045 22.9983V8.42683H179.33V25.5697H173.902L163.616 11.284L164.759 10.9983V25.5697H160.759V8.42683H166.188L176.473 22.7125ZM186.759 8.42683V23.5697L185.045 21.8554H197.616V25.5697H182.473V8.42683H186.759ZM199.616 8.42683H203.902V25.5697H199.616V8.42683ZM223.045 22.7125L221.616 22.9983V8.42683H225.902V25.5697H220.473L210.188 11.284L211.33 10.9983V25.5697H207.33V8.42683H212.759L223.045 22.7125ZM243.33 15.5697V18.7125H231.045V15.5697H243.33ZM233.902 24.1411L231.045 22.1411H244.188V25.5697H229.33V8.42683H243.902V12.1411H231.045L232.759 10.1411L233.902 11.8554V24.1411Z"
	      fill="#8A53FF"></path>
</svg>