<svg xmlns="http://www.w3.org/2000/svg" xml:space="preserve" width="1067px" height="200px" version="1.0"
     style="shape-rendering:geometricPrecision; text-rendering:geometricPrecision; image-rendering:optimizeQuality; fill-rule:evenodd; clip-rule:evenodd"
     viewBox="0 0 17.96 3.36" xmlns:xlink="http://www.w3.org/1999/xlink"
     xmlns:xodm="http://www.corel.com/coreldraw/odm/2003">
 <defs>
  <style>

    .fil2 {fill:#FEFEFE}
    .fil0 {fill:#2B2A29}
    .fil1 {fill:#95D94E}
    .fil3 {fill:#FEFEFE;fill-rule:nonzero}

  </style>
 </defs>
	<g id="Слой_x0020_1">
  <metadata id="CorelCorpID_0Corel-Layer"></metadata>
		<g id="_1975893962784">
   <rect class="fil0" x="3.36" width="14.6" height="3.36"></rect>
			<path class="fil1" d="M3.36 0l-3.36 0 0 3.36 3.36 0 0 -3.36z"></path>
			<path class="fil2"
			      d="M0.61 2.26l0 -0.79 0.22 0 0 -0.59 0.4 0 0 0.2 0.2 0 0 0.19 0.3 0 0.3 0 0 -0.19 0.19 0 0 -0.2 0.4 0 0 0.59 0.22 0 0 0.79 -0.23 0 0 0.22 -0.88 0 -0.89 0 0 -0.22 -0.23 0zm1.25 -0.4l0.2 0 0 0.2 -0.2 0 0 -0.2zm-0.79 0l0.21 0 0 0.2 -0.21 0 0 -0.2z"></path>
			<path class="fil3"
			      d="M4.33 2.28l0 -1.2 0.24 0 0 1.2 -0.24 0zm0.9 -0.48l0 -0.24 0.24 0 0 0.24 -0.24 0zm-0.48 0.48l0 -1.2 0.24 0 0 0.24 0.24 0 0 0.24 -0.24 0 0 0.72 -0.24 0zm0.96 0l0 -0.72 -0.24 0 0 -0.24 0.24 0 0 -0.24 0.24 0 0 1.2 -0.24 0zm1.38 -0.72l0 -0.24 0.24 0 0 0.24 -0.24 0zm-0.96 0.72l0 -1.2 0.96 0 0 0.24 -0.72 0 0 0.24 0.72 0 0 0.24 -0.72 0 0 0.48 -0.24 0zm2.34 0l0 -0.48 0.24 0 0 0.48 -0.24 0zm0 -0.72l0 -0.24 0.24 0 0 0.24 -0.24 0zm-0.96 0.72l0 -1.2 0.96 0 0 0.24 -0.72 0 0 0.24 0.72 0 0 0.24 -0.72 0 0 0.48 -0.24 0zm1.62 0l0 -0.24 0.72 0 0 0.24 -0.72 0zm-0.24 -0.24l0 -0.72 0.24 0 0 0.72 -0.24 0zm0.96 0l0 -0.72 0.24 0 0 0.72 -0.24 0zm-0.72 -0.72l0 -0.24 0.72 0 0 0.24 -0.72 0zm1.38 0.96l0 -0.24 0.72 0 0 0.24 -0.72 0zm-0.24 -0.24l0 -0.24 0.24 0 0 0.24 -0.24 0zm0.96 0l0 -0.96 0.24 0 0 0.96 -0.24 0zm0.42 0.24l0 -1.2 1.2 0 0 0.24 -0.96 0 0 0.24 0.48 0 0 0.24 -0.48 0 0 0.24 0.96 0 0 0.24 -1.2 0zm1.62 0l0 -0.24 0.72 0 0 0.24 -0.72 0zm0.72 -0.24l0 -0.24 0.24 0 0 0.24 -0.24 0zm-0.97 0l0 -0.72 0.25 0 0 0.72 -0.25 0zm0.97 -0.48l0 -0.24 0.24 0 0 0.24 -0.24 0zm-0.72 -0.24l0 -0.24 0.72 0 0 0.24 -0.72 0zm1.62 0.96l0 -0.96 -0.49 0 0 -0.24 1.21 0 0 0.24 -0.48 0 0 0.96 -0.24 0zm0.89 0l0 -0.24 0.97 0 0 0.24 -0.97 0zm0.97 -0.24l0 -0.24 0.24 0 0 0.24 -0.24 0zm-0.73 -0.24l0 -0.24 0.73 0 0 0.24 -0.73 0zm-0.24 -0.24l0 -0.24 0.24 0 0 0.24 -0.24 0zm0.24 -0.24l0 -0.24 0.97 0 0 0.24 -0.97 0z"></path>
  </g>
 </g>
</svg>