<svg viewBox="0 0 30 30" fill="none" xmlns="http://www.w3.org/2000/svg">
<path d="M24.634 5.12793C23.96 5.39893 9.747 11.5199 4.852 13.6259C4.566 13.7489 4 13.9359 4 14.5459C4 15.0359 4.368 15.2779 4.792 15.4509C5.863 15.8879 9.803 17.4999 9.803 17.4999C9.803 17.4999 11.21 21.8059 11.502 22.7499C11.794 23.6949 12.029 23.7169 12.029 23.7169C12.094 23.7459 12.157 23.7569 12.216 23.7569C12.404 23.7569 12.549 23.6449 12.549 23.6449L16.221 20.4689L20.529 24.5439C20.529 24.5439 20.957 24.9999 21.43 24.9999C22.006 24.9999 22.423 24.4129 22.496 24.0309C22.597 23.4969 25.94 6.33693 25.94 6.33693C26.243 4.95393 25.344 4.84093 24.634 5.12793Z" stroke="#8A53FF" stroke-width="2" stroke-miterlimit="10"/>
<path d="M20.8657 10C20.7127 10 20.5067 10.149 20.3967 10.219C18.8217 11.223 10.9277 15.816 8.7627 17.074C9.3727 17.324 9.8027 17.5 9.8027 17.5C9.8027 17.5 11.2097 21.806 11.5017 22.75C11.7937 23.695 12.0287 23.717 12.0287 23.717C12.0937 23.746 12.1567 23.757 12.2157 23.757C12.2637 23.757 12.2967 23.74 12.3367 23.728L13.7757 17.968C13.7757 17.968 20.3317 11.183 20.7267 10.788C21.0447 10.472 21.1107 10.36 21.1107 10.251C21.1107 10.105 21.0357 10 20.8657 10Z" fill="#8A53FF"/>
</svg>
