<svg width="1189" height="483" viewBox="0 0 1189 483" fill="none" xmlns="http://www.w3.org/2000/svg">
	<path d="M329.216 59.9695C329.216 59.6862 329.216 59.4029 329.203 59.1325C329.177 57.5872 329.113 56.2222 329.022 55.0118C328.958 54.2906 328.894 53.621 328.816 53.0158C328.649 51.7538 328.546 50.4918 328.546 49.217V29.9268C328.546 13.3924 315.141 0 298.619 0H32.6774C16.143 0 2.75063 13.3924 2.75063 29.9268V41.0656C2.75063 44.0918 2.19683 47.0665 1.38556 49.9896C1.03788 51.2387 0.793266 52.887 0.638739 54.986C0.548598 56.351 0.484205 57.922 0.471328 59.712C0.458451 60.6263 0.458451 61.5921 0.471328 62.6223C0.561469 71.2372 1.35989 84.1016 2.75063 103.108C3.54902 113.874 4.52765 126.609 5.67372 141.65C5.93127 144.882 6.18886 148.23 6.44641 151.682C11.3269 215.695 11.0178 214.6 13.3228 240.844C15.9756 271.157 18.6283 301.496 22.324 331.706C26.4834 365.728 31.248 399.711 36.8883 433.527C39.1547 447.138 44.3313 460.286 48.4006 473.575C49.6239 477.593 51.9676 479.833 55.4445 480.774C57.0284 481.34 58.8698 481.611 60.9688 481.598C66.6863 481.585 72.3909 481.572 78.1085 481.559C135.451 481.43 192.781 481.443 250.11 481.559C256.601 481.572 263.078 481.585 269.568 481.598C275.685 481.623 279.574 479.447 281.286 473.858C285.355 460.556 290.532 447.408 292.799 433.797C298.439 399.981 303.203 366.011 307.363 331.976C311.059 301.779 313.711 271.44 316.364 241.114C318.669 214.87 318.36 215.965 323.241 151.965C323.511 148.411 323.781 144.972 324.039 141.65C326.177 113.784 327.722 93.8625 328.546 79.7104C328.881 74.0186 329.087 69.2669 329.19 65.3007C329.19 65.0432 329.19 64.7985 329.203 64.5538C329.203 64.0645 329.216 63.6009 329.216 63.1373C329.229 62.0041 329.229 60.9482 329.216 59.9695ZM245.629 442.605C210.487 448.22 175.049 447.936 139.675 447.177C121.157 446.777 102.562 445.361 84.2123 442.914C84.1608 442.901 84.1093 442.901 84.0578 442.889C69.9443 440.635 62.9133 429.522 66.4031 415.602C67.2014 412.421 67.4074 408.764 66.6863 405.596C65.3471 399.685 64.1238 393.775 63.0034 387.838C58.6638 364.981 55.7921 341.931 53.3455 318.829C51.71 303.363 50.2549 287.885 48.6968 272.419C45.7736 243.625 43.9837 214.716 41.9104 185.845C40.7901 170.16 39.7213 154.476 38.6911 138.779C78.4562 144.689 146.693 149.106 197.185 126.828C236.036 109.689 269.98 105.014 293.249 104.383C292.58 114.415 291.923 124.446 291.253 134.49C290.133 151.514 289 168.538 287.776 185.562C285.703 214.445 283.913 243.355 280.99 272.149C279.29 288.863 277.732 305.604 275.929 322.318C275.929 322.331 275.917 322.357 275.929 322.37C273.084 343.643 269.928 364.865 266.954 386.125C265.769 392.538 264.456 398.938 263.001 405.325C262.279 408.493 262.498 412.15 263.284 415.318C266.774 429.239 259.743 440.352 245.629 442.605Z"
	      fill="#F8C7C8"/>
	<path d="M297.421 85.8141C297.383 85.1445 297.318 84.5264 297.254 83.9469C297.125 82.788 297.035 81.6161 297.035 80.4314V62.532C297.035 60.742 296.893 59.0036 296.597 57.3038C294.46 44.4652 284.557 34.7686 272.658 34.7686H55.9853C44.6275 34.7686 35.0854 43.6152 32.3812 55.5911C31.879 57.806 31.6086 60.1368 31.6086 62.532V72.8724C31.6086 75.6797 31.1579 78.4354 30.5012 81.1397C30.2179 82.3115 30.0118 83.831 29.883 85.7884C29.4194 93.1155 30.0762 106.559 31.6086 130.434C31.7631 132.765 31.9176 135.199 32.085 137.748C32.6388 146.067 33.2697 155.493 33.9908 166.194C34.1969 169.195 34.403 172.298 34.6219 175.504C38.601 234.894 38.3434 233.877 40.2235 258.228C42.3869 286.352 44.5374 314.502 47.5507 342.523C50.9374 374.098 54.8263 405.622 59.4235 437.004C60.4537 444.099 62.2437 451.065 64.2139 458.006C65.7205 463.389 67.3431 468.759 68.7982 474.154C69.7897 477.876 71.7085 479.962 74.5415 480.838C75.5974 481.263 76.7692 481.507 78.1084 481.559C78.4046 481.598 78.7137 481.598 79.0356 481.598C135.696 481.43 192.33 481.443 248.99 481.598C249.376 481.598 249.75 481.585 250.11 481.559C254.45 481.288 257.257 479.189 258.532 474.412C259.369 471.321 260.245 468.244 261.133 465.166C263.812 455.946 266.529 446.713 267.92 437.248C272.504 405.879 276.393 374.355 279.78 342.78C282.793 314.759 284.956 286.61 287.107 258.473C288.987 234.122 288.742 235.139 292.721 175.762C292.94 172.465 293.159 169.272 293.365 166.194C295.104 140.337 296.366 121.858 297.035 108.723C297.113 107.178 297.177 105.722 297.241 104.319C297.628 95.7554 297.692 89.8318 297.421 85.8141ZM291.253 134.49C290.133 151.514 289 168.538 287.776 185.562C285.703 214.445 283.913 243.355 280.99 272.148C279.29 288.863 277.732 305.604 275.929 322.318C275.929 322.331 275.916 322.357 275.929 322.37C273.083 343.643 269.928 364.865 266.954 386.125C265.769 392.538 264.456 398.938 263.001 405.325C262.279 408.493 262.498 412.15 263.284 415.318C266.774 429.238 259.743 440.352 245.629 442.605C210.487 448.22 175.049 447.936 139.675 447.177C121.157 446.777 102.562 445.361 84.2123 442.914C84.1608 442.901 84.1092 442.901 84.0577 442.888C69.9442 440.635 62.9133 429.522 66.403 415.601C67.2014 412.421 67.4074 408.764 66.6863 405.596C65.3471 399.685 64.1237 393.774 63.0034 387.838C58.6638 364.981 55.7921 341.93 53.3454 318.829C51.71 303.363 50.2549 287.884 48.6968 272.419C45.7736 243.625 43.9836 214.716 41.9104 185.845C40.7901 170.16 39.7213 154.476 38.6911 138.778C78.4561 144.689 146.693 149.106 197.185 126.828C236.036 109.689 269.98 105.014 293.249 104.383C292.58 114.415 291.923 124.446 291.253 134.49Z"
	      fill="#FFE7E7"/>
	<path d="M293.249 104.383C292.58 114.415 291.923 124.446 291.253 134.49C290.133 151.514 289 168.538 287.776 185.562C286.849 198.568 285.961 211.574 285.008 224.567L255.789 202.972C250.252 198.89 242.384 199.971 238.225 205.406L222.669 225.726C220.299 228.817 216.591 230.632 212.638 230.632H123.295C119.38 230.632 115.697 228.855 113.328 225.816L97.2441 205.161C93.0976 199.843 85.3455 198.761 79.8469 202.74L46.6879 226.718C46.0441 227.181 45.4517 227.709 44.9237 228.276C43.8678 214.136 42.9277 199.984 41.9104 185.845C40.7901 170.16 39.7213 154.476 38.6911 138.779C78.4562 144.689 146.693 149.106 197.185 126.828C236.036 109.689 269.98 105.014 293.249 104.383Z"
	      fill="#FF7372"/>
	<path d="M325.919 106.418C325.919 106.418 289.489 460.492 261.133 465.166C260.85 465.218 260.58 465.231 260.309 465.205C231.85 463.054 108.795 484.559 71.2964 465.218C68.8883 463.969 66.5189 461.522 64.2139 458.006C30.411 406.871 6.56226 132.198 6.56226 132.198C8.55824 133.074 17.9715 135.405 32.085 137.748C34.184 138.096 36.3861 138.444 38.6911 138.778C39.7213 154.476 40.7901 170.16 41.9104 185.845C43.9837 214.716 45.7736 243.625 48.6968 272.419C50.2549 287.885 51.71 303.363 53.3455 318.829C55.7921 341.931 58.6638 364.981 63.0034 387.838C64.1237 393.775 65.3471 399.685 66.6863 405.596C67.4074 408.764 67.2014 412.421 66.403 415.602C62.9133 429.522 69.9442 440.635 84.0578 442.888C84.1093 442.901 84.1608 442.901 84.2123 442.914C102.562 445.361 121.157 446.777 139.675 447.177C175.049 447.936 210.487 448.22 245.629 442.605C259.743 440.352 266.774 429.239 263.284 415.318C262.498 412.15 262.279 408.493 263.001 405.325C264.456 398.938 265.769 392.538 266.954 386.125C269.928 364.865 273.084 343.643 275.929 322.37C275.917 322.357 275.929 322.331 275.929 322.318C277.732 305.604 279.29 288.863 280.99 272.149C283.913 243.355 285.703 214.445 287.776 185.562C289 168.538 290.133 151.514 291.253 134.49C291.923 124.446 292.58 114.415 293.249 104.383C294.614 104.345 295.953 104.319 297.241 104.319C315.295 104.164 325.919 106.418 325.919 106.418Z"
	      fill="#FF7372"/>
	<path d="M329.216 63.1374C329.216 63.601 329.216 64.0646 329.203 64.5539C329.19 64.7986 329.19 65.0432 329.19 65.3008C328.881 80.2513 326.743 106.65 323.241 152.403C318.36 216.403 318.669 215.308 316.364 241.552C313.711 271.878 311.059 302.217 307.363 332.414C303.203 366.449 298.439 400.419 292.799 434.235C290.532 447.846 285.355 460.994 281.286 474.296C279.574 479.885 275.685 482.061 269.568 482.035C200.031 481.868 130.506 481.855 60.9688 482.035C58.8698 482.048 57.0284 481.778 55.4445 481.211C51.9676 480.271 49.6239 478.031 48.4006 474.013C44.3313 460.724 39.1547 447.576 36.8883 433.965C31.248 400.149 26.4834 366.166 22.324 332.144C18.6283 301.934 15.9756 271.595 13.3228 241.282C11.0178 215.038 11.3269 216.132 6.44641 152.119C2.75063 103.83 0.587223 77.0835 0.471328 62.6223C0.458451 61.5922 0.458451 60.6263 0.471328 59.7121C0.497082 58.1024 0.548598 56.6859 0.638739 55.4239C0.960671 50.9426 1.72043 48.5861 2.96952 47.4915C5.45484 48.0324 7.86291 48.5346 10.2323 49.0368C17.3277 50.5434 24.011 51.9857 30.6299 53.634C31.2609 53.7885 31.9047 54.6126 32.3812 55.5913C32.819 56.4412 33.1152 57.407 33.1796 58.1797C34.1583 69.8594 34.8923 81.5648 35.6778 93.2574C35.7164 93.7596 35.7422 94.2489 35.7808 94.7511C36.6694 108.04 37.545 121.343 38.4207 134.632C38.5108 136.01 38.601 137.401 38.6911 138.779C39.7213 154.476 40.7901 170.161 41.9104 185.845C43.9837 214.716 45.7736 243.625 48.6968 272.419C50.2549 287.885 51.71 303.363 53.3455 318.829C55.7921 341.931 58.6638 364.981 63.0034 387.838C64.1238 393.775 65.3471 399.685 66.6863 405.596C67.4074 408.764 67.2014 412.421 66.4031 415.602C62.9133 429.522 69.9443 440.635 84.0578 442.889C84.1093 442.901 84.1608 442.901 84.2123 442.914C102.562 445.361 121.157 446.777 139.675 447.177C175.049 447.936 210.487 448.22 245.629 442.605C259.743 440.352 266.774 429.239 263.284 415.318C262.498 412.15 262.279 408.493 263.001 405.326C264.456 398.938 265.769 392.538 266.954 386.126C269.928 364.865 273.084 343.643 275.929 322.37C275.917 322.357 275.929 322.331 275.929 322.319C277.732 305.604 279.29 288.863 280.99 272.149C283.913 243.355 285.703 214.446 287.776 185.562C289 168.538 290.133 151.514 291.253 134.49C291.923 124.446 292.58 114.415 293.249 104.383C293.468 101.087 293.687 97.7773 293.906 94.4807C293.919 94.2103 293.945 93.9528 293.958 93.6823C294.769 81.758 295.516 69.8079 296.507 57.9092C296.52 57.7161 296.559 57.51 296.597 57.304C296.932 55.6943 298.014 53.6082 299.057 53.3507C305.998 51.6251 312.99 50.1313 320.472 48.5474C322.313 48.1611 324.193 47.7619 326.099 47.3499C327.696 48.1611 328.649 50.4533 329.022 55.4497C329.113 56.5442 329.164 57.7676 329.203 59.1326C329.203 59.403 329.216 59.6863 329.216 59.9696C329.229 60.9483 329.229 62.0042 329.216 63.1374Z"
	      fill="#E3565A"/>
	<path d="M285.008 224.567C283.862 240.445 282.6 256.309 280.99 272.148C280.745 274.569 280.501 277.003 280.269 279.424C278.84 293.718 277.475 308.025 275.929 322.318C275.929 322.331 275.917 322.357 275.929 322.37C273.084 343.643 269.928 364.865 266.954 386.125C265.769 392.538 264.456 398.938 263.001 405.325C262.279 408.493 262.498 412.15 263.284 415.318C266.774 429.238 259.743 440.352 245.629 442.605C210.487 448.22 175.049 447.936 139.675 447.177C121.157 446.777 102.562 445.361 84.2123 442.914C84.1608 442.901 84.1093 442.901 84.0578 442.888C69.9443 440.635 62.9133 429.522 66.4031 415.601C67.2015 412.421 67.4075 408.764 66.6863 405.596C65.3471 399.685 64.1238 393.774 63.0034 387.838C58.6638 364.981 55.7922 341.93 53.3455 318.829C51.7101 303.363 50.255 287.884 48.6968 272.419C48.4779 270.281 48.2718 268.131 48.0657 265.993C46.8553 253.438 45.8509 240.857 44.9238 228.276C45.4517 227.709 46.0441 227.181 46.6879 226.717L79.847 202.74C85.3456 198.761 93.0976 199.843 97.2441 205.161L113.328 225.816C115.697 228.855 119.38 230.632 123.295 230.632H212.638C216.591 230.632 220.299 228.816 222.669 225.726L238.225 205.406C242.384 199.971 250.252 198.89 255.789 202.972L285.008 224.567Z"
	      fill="#CC4A53"/>
	<path d="M135.824 330.946C140.362 330.946 144.04 324.316 144.04 316.137C144.04 307.959 140.362 301.329 135.824 301.329C131.287 301.329 127.609 307.959 127.609 316.137C127.609 324.316 131.287 330.946 135.824 330.946Z"
	      fill="#F5F3E7"/>
	<path d="M196.644 330.946C201.181 330.946 204.86 324.316 204.86 316.137C204.86 307.959 201.181 301.329 196.644 301.329C192.106 301.329 188.428 307.959 188.428 316.137C188.428 324.316 192.106 330.946 196.644 330.946Z"
	      fill="#F5F3E7"/>
	<path d="M551.323 121.989V123.978L508.539 196.789C507.824 198.026 507.437 199.416 507.437 200.845V240.862C507.437 245.285 503.845 248.877 499.421 248.877H482.269C477.846 248.877 474.253 245.285 474.253 240.862V200.865C474.253 199.435 473.866 198.006 473.132 196.77L430 123.959V121.97H462.489C465.387 121.97 468.052 123.534 469.482 126.045L480.646 145.86C480.724 146.015 480.801 146.15 480.878 146.304L483.775 152.311C486.712 158.395 495.384 158.337 498.262 152.234L500.947 146.498C501.025 146.324 501.121 146.15 501.198 145.995L512.363 126.045C513.773 123.515 516.458 121.95 519.355 121.95H551.285L551.323 121.989Z"
	      fill="#FF7372"/>
	<path d="M552.405 185.453C552.405 147.019 579.969 120 618.948 120C657.928 120 685.492 147.019 685.492 185.453C685.492 223.886 657.928 250.906 618.948 250.906C579.969 250.906 552.405 223.886 552.405 185.453ZM651.592 185.453C651.592 165.154 638.535 151.558 618.948 151.558C599.362 151.558 586.304 164.981 586.304 185.453C586.304 205.925 599.362 219.348 618.948 219.348C638.535 219.348 651.592 205.751 651.592 185.453Z"
	      fill="#FF7372"/>
	<path d="M827.29 186.36C827.29 225.335 802.45 250.906 763.103 250.906C723.757 250.906 699.283 223.886 699.283 185.453C699.283 147.019 725.765 120 763.103 120C789.353 120 809.288 131.318 819.448 152.021C822.094 157.39 818.289 163.687 812.301 163.687H793.352C790.879 163.687 788.484 162.644 786.958 160.693C781.878 154.223 775.002 151.172 764.378 151.172C745.7 151.172 733.183 164.942 733.183 185.433C733.183 205.925 746.066 219.695 765.286 219.695C772.838 219.695 779.348 217.513 784.331 213.747C788.967 210.251 786.379 202.835 780.584 202.835H770.115C766.754 202.835 764.03 200.112 764.03 196.751V183.309C764.03 178.886 767.623 175.294 772.046 175.294H819.197C823.446 175.294 826.981 178.597 827.213 182.826C827.271 184.004 827.309 185.182 827.309 186.341H827.29V186.36Z"
	      fill="#FF7372"/>
	<path d="M845.968 200.498V130.004C845.968 125.582 849.561 121.989 853.985 121.989H871.118C875.541 121.989 879.134 125.582 879.134 130.004V200.305C879.134 212.82 886.03 219.695 898.72 219.695C911.411 219.695 918.307 212.8 918.307 200.305V130.004C918.307 125.582 921.899 121.989 926.323 121.989H943.456C947.879 121.989 951.472 125.582 951.472 130.004V200.498C951.472 230.588 930.978 250.906 898.701 250.906C866.424 250.906 845.93 230.607 845.93 200.498H845.968Z"
	      fill="#FF7372"/>
	<path d="M1087.11 248.009V248.917H1054.7C1051.76 248.917 1049.06 247.313 1047.67 244.745L1030.82 213.94C1029.41 211.371 1026.71 209.768 1023.79 209.768H1018.79C1014.36 209.768 1010.77 213.361 1010.77 217.784V240.901C1010.77 245.324 1007.18 248.917 1002.76 248.917H985.603C981.18 248.917 977.587 245.324 977.587 240.901V130.024C977.587 125.601 981.18 122.009 985.603 122.009H1031.61C1060.09 122.009 1080.02 139.951 1080.02 166.796C1080.02 179.814 1074.46 191.15 1064.97 198.837C1061.9 201.329 1061.24 205.771 1063.31 209.15L1087.11 248.028V248.009ZM1010.77 173.633C1010.77 178.056 1014.36 181.648 1018.79 181.648H1029.99C1040.33 181.648 1046.49 175.854 1046.49 166.062C1046.49 156.271 1040.33 150.65 1029.99 150.65H1018.79C1014.36 150.65 1010.77 154.243 1010.77 158.665V173.633Z"
	      fill="#FF7372"/>
	<path d="M1180.98 151.732H1166.38C1161.96 151.732 1158.36 155.324 1158.36 159.747V240.882C1158.36 245.305 1154.77 248.897 1150.35 248.897H1133.2C1128.77 248.897 1125.18 245.305 1125.18 240.882V159.747C1125.18 155.324 1121.59 151.732 1117.16 151.732H1102.56C1098.14 151.732 1094.55 148.14 1094.55 143.717V130.024C1094.55 125.601 1098.14 122.009 1102.56 122.009H1180.98C1185.41 122.009 1189 125.601 1189 130.024V143.717C1189 148.14 1185.41 151.732 1180.98 151.732Z"
	      fill="#FF7372"/>
	<path d="M643.441 363C638.129 363 633.049 362.189 628.22 360.566C624.936 359.466 622.135 358.152 619.798 356.607C617.982 355.41 617.306 353.092 618.234 351.142C619.335 348.824 622.155 347.993 624.337 349.307C626.192 350.408 628.278 351.393 630.596 352.262C634.71 353.787 638.979 354.541 643.441 354.541C647.478 354.541 650.762 354.077 653.292 353.15C655.803 352.223 657.677 350.948 658.855 349.326C660.053 347.704 660.651 345.869 660.651 343.803C660.651 341.408 659.879 339.496 658.314 338.028C656.75 336.579 654.741 335.382 652.249 334.493C649.757 333.605 647.034 332.813 644.04 332.157C641.046 331.5 638.052 330.708 635.038 329.82C632.025 328.931 629.263 327.772 626.771 326.382C624.28 324.991 622.271 323.118 620.745 320.762C619.219 318.405 618.465 315.373 618.465 311.665C618.465 307.957 619.412 304.79 621.305 301.777C623.198 298.764 626.114 296.33 630.055 294.515C633.995 292.699 639.018 291.772 645.121 291.772C649.158 291.772 653.176 292.313 657.155 293.356C659.628 294.013 661.907 294.863 663.974 295.867C666.041 296.871 666.948 299.285 666.079 301.39C665.152 303.65 662.506 304.712 660.323 303.65C658.527 302.781 656.672 302.086 654.76 301.564C651.438 300.676 648.231 300.212 645.102 300.212C641.181 300.212 637.975 300.714 635.444 301.699C632.914 302.704 631.079 304.017 629.92 305.678C628.761 307.339 628.181 309.193 628.181 311.24C628.181 313.693 628.954 315.644 630.519 317.112C632.083 318.579 634.092 319.738 636.584 320.588C639.075 321.457 641.799 322.23 644.793 322.925C647.787 323.62 650.781 324.393 653.794 325.262C656.808 326.131 659.57 327.251 662.061 328.641C664.553 330.032 666.562 331.886 668.088 334.204C669.614 336.521 670.367 339.515 670.367 343.165C670.367 346.815 669.401 349.944 667.489 352.957C665.558 355.97 662.602 358.403 658.585 360.219C654.567 362.054 649.506 362.961 643.402 362.961L643.441 363Z"
	      fill="#F8C7C8"/>
	<path d="M697.777 357.901V305.504C697.777 303.129 695.864 301.217 693.489 301.217H678.19C675.814 301.217 673.902 299.305 673.902 296.929V296.852C673.902 294.477 675.814 292.564 678.19 292.564H727.214C729.59 292.564 731.502 294.477 731.502 296.852V296.929C731.502 299.305 729.59 301.217 727.214 301.217H711.916C709.54 301.217 707.628 303.129 707.628 305.504V357.901C707.628 360.277 705.715 362.189 703.34 362.189H702.065C699.689 362.189 697.777 360.277 697.777 357.901Z"
	      fill="#F8C7C8"/>
	<path d="M769.902 363C760.747 363 753.542 360.374 748.307 355.14C743.073 349.906 740.446 342.238 740.446 332.157V296.852C740.446 294.477 742.358 292.564 744.734 292.564H746.105C748.481 292.564 750.393 294.477 750.393 296.852V331.751C750.393 339.515 752.093 345.174 755.512 348.766C758.931 352.339 763.76 354.135 769.999 354.135C776.238 354.135 781.163 352.339 784.582 348.766C788.001 345.193 789.701 339.515 789.701 331.751V296.852C789.701 294.477 791.613 292.564 793.989 292.564H795.052C797.428 292.564 799.34 294.477 799.34 296.852V332.157C799.34 342.238 796.732 349.906 791.536 355.14C786.321 360.374 779.116 363 769.902 363Z"
	      fill="#F8C7C8"/>
	<path d="M819.757 357.901V296.833C819.757 294.457 821.669 292.545 824.045 292.545H849.098C856.534 292.545 863.082 294.013 868.742 296.929C874.421 299.845 878.825 303.92 881.973 309.174C885.122 314.408 886.706 320.491 886.706 327.386C886.706 334.281 885.122 340.345 881.973 345.599C878.825 350.833 874.401 354.927 868.742 357.843C863.063 360.76 856.515 362.227 849.098 362.227H824.045C821.669 362.227 819.757 360.315 819.757 357.94V357.901ZM829.704 349.249C829.704 351.624 831.617 353.536 833.993 353.536H848.499C854.274 353.536 859.258 352.435 863.469 350.253C867.68 348.071 870.944 345 873.262 341.06C875.58 337.12 876.739 332.562 876.739 327.386C876.739 322.21 875.58 317.575 873.262 313.654C870.944 309.734 867.68 306.682 863.469 304.5C859.258 302.317 854.274 301.217 848.499 301.217H833.993C831.617 301.217 829.704 303.129 829.704 305.504V349.249Z"
	      fill="#F8C7C8"/>
	<path d="M901.946 357.901V296.833C901.946 294.457 903.858 292.545 906.234 292.545H907.606C909.981 292.545 911.894 294.457 911.894 296.833V357.901C911.894 360.277 909.981 362.189 907.606 362.189H906.234C903.858 362.189 901.946 360.277 901.946 357.901Z"
	      fill="#F8C7C8"/>
	<path d="M964.24 363C958.928 363 954.002 362.112 949.463 360.316C944.924 358.52 940.983 356.028 937.68 352.803C934.358 349.577 931.77 345.831 929.916 341.505C928.061 337.198 927.134 332.485 927.134 327.386C927.134 322.288 928.061 317.575 929.916 313.249C931.77 308.942 934.358 305.176 937.68 301.951C941.003 298.725 944.905 296.234 949.424 294.438C953.925 292.642 958.87 291.753 964.259 291.753C969.648 291.753 974.477 292.642 978.978 294.399C983.479 296.157 987.4 298.648 990.722 301.854C994.044 305.08 996.614 308.846 998.429 313.191C1000.24 317.537 1001.17 322.268 1001.17 327.367C1001.17 332.466 1000.26 337.275 998.429 341.601C996.594 345.908 994.025 349.674 990.722 352.899C987.4 356.125 983.498 358.597 978.978 360.354C974.477 362.112 969.552 363 964.259 363H964.24ZM964.143 354.135C968.065 354.135 971.657 353.479 974.941 352.146C978.225 350.813 981.083 348.94 983.498 346.526C985.912 344.112 987.805 341.273 989.177 338.028C990.548 334.783 991.224 331.23 991.224 327.386C991.224 323.543 990.548 320.009 989.177 316.783C987.825 313.558 985.932 310.738 983.498 308.286C981.083 305.833 978.225 303.94 974.941 302.607C971.657 301.275 968.065 300.618 964.143 300.618C960.222 300.618 956.726 301.275 953.442 302.607C950.159 303.94 947.281 305.833 944.828 308.286C942.374 310.738 940.462 313.577 939.11 316.783C937.758 320.009 937.062 323.543 937.062 327.386C937.062 331.23 937.738 334.783 939.11 338.028C940.481 341.273 942.374 344.112 944.828 346.526C947.281 348.94 950.159 350.813 953.442 352.146C956.726 353.479 960.3 354.135 964.143 354.135Z"
	      fill="#F8C7C8"/>
</svg>
